<?xml version="1.0" encoding="UTF-8"?>
<svg width="326px" height="550px" viewBox="0 0 326 550" version="1.1" xmlns="http://www.w3.org/2000/svg" xmlns:xlink="http://www.w3.org/1999/xlink">
    <title>SMALL</title>
    <g id="Page-1" stroke="none" stroke-width="1" fill="none" fill-rule="evenodd">
        <g id="Artboard" transform="translate(-15.000000, 0.000000)">
            <g id="SMALL" transform="translate(15.000000, 0.000000)">
                <rect id="Rectangle" stroke="#000000" fill="#F0F0F0" x="36.5" y="49.5" width="251" height="449"></rect>
                <line x1="161.5" y1="42.5" x2="161.5" y2="531.5" id="Line" stroke="#979797" stroke-linecap="square"></line>
                <path id="Line-2" d="M307.5,270 C309.985281,270 312,272.014719 312,274.5 C312,276.985281 309.985281,279 307.5,279 C305.183966,279 303.276586,277.250342 303.027543,275.000707 L29.9724574,275.000707 C29.7234136,277.250342 27.8160341,279 25.5,279 C23.0147186,279 21,276.985281 21,274.5 C21,272.014719 23.0147186,270 25.5,270 C27.8163788,270 29.7239814,271.750179 29.9725684,274.000297 L303.027432,274.000297 C303.276019,271.750179 305.183621,270 307.5,270 Z M25.5,271 C23.5670034,271 22,272.567003 22,274.5 C22,276.432997 23.5670034,278 25.5,278 C27.4329966,278 29,276.432997 29,274.5 C29,272.567003 27.4329966,271 25.5,271 Z M307.5,271 C305.567003,271 304,272.567003 304,274.5 C304,276.432997 305.567003,278 307.5,278 C309.432997,278 311,276.432997 311,274.5 C311,272.567003 309.432997,271 307.5,271 Z" fill="#979797" fill-rule="nonzero"></path>
                <text id="A" font-family="Helvetica" font-size="45" font-weight="normal" fill="#000000">
                    <tspan x="146" y="540">A</tspan>
                </text>
                <text id="C" font-family="Helvetica" font-size="45" font-weight="normal" fill="#000000">
                    <tspan x="145" y="44">C</tspan>
                </text>
                <text id="X" font-family="Helvetica-Light, Helvetica" font-size="45" font-weight="300" fill="#000000">
                    <tspan x="148" y="291">X</tspan>
                </text>
                <text id="B" font-family="Helvetica" font-size="45" font-weight="normal" fill="#000000">
                    <tspan x="289" y="287">B</tspan>
                </text>
                <text id="E" font-family="Helvetica" font-size="45" font-weight="normal" fill="#000000">
                    <tspan x="0" y="291">E</tspan>
                </text>
                <text id="H" font-family="Helvetica" font-size="45" font-weight="normal" fill="#000000">
                    <tspan x="0" y="121">H</tspan>
                </text>
                <line x1="313.5" y1="104.5" x2="0.5" y2="104.5" id="Line-3" stroke="#979797" stroke-linecap="square"></line>
                <text id="M" font-family="Helvetica" font-size="45" font-weight="normal" fill="#000000">
                    <tspan x="288" y="121">M</tspan>
                </text>
                <text id="K" font-family="Helvetica" font-size="45" font-weight="normal" fill="#000000">
                    <tspan x="2" y="455">K</tspan>
                </text>
                <text id="F" font-family="Helvetica" font-size="45" font-weight="normal" fill="#000000">
                    <tspan x="292" y="458">F</tspan>
                </text>
                <text id="D" font-family="Helvetica" font-size="35" font-weight="normal" fill="#000000">
                    <tspan x="149" y="450">D</tspan>
                </text>
                <text id="G" font-family="Helvetica" font-size="35" font-weight="normal" fill="#000000">
                    <tspan x="146" y="117">G</tspan>
                </text>
                <line x1="297.5" y1="437.5" x2="0.5" y2="437.5" id="Line-4" stroke="#979797" stroke-linecap="square"></line>
                <path id="Line-5" d="M93.5,492 C93.7454599,492 93.9496084,492.176875 93.9919443,492.410124 L94,492.5 L94.0007074,495.027543 C96.2503421,495.276586 98,497.183966 98,499.5 C98,501.985281 95.9852814,504 93.5,504 C91.0147186,504 89,501.985281 89,499.5 C89,497.183621 90.7501788,495.276019 93.000297,495.027432 L93,492.5 C93,492.223858 93.2238576,492 93.5,492 Z M93.5,496 C91.5670034,496 90,497.567003 90,499.5 C90,501.432997 91.5670034,503 93.5,503 C95.4329966,503 97,501.432997 97,499.5 C97,497.567003 95.4329966,496 93.5,496 Z M93.5,486 C93.7454599,486 93.9496084,486.176875 93.9919443,486.410124 L94,486.5 L94,489.5 C94,489.776142 93.7761424,490 93.5,490 C93.2545401,490 93.0503916,489.823125 93.0080557,489.589876 L93,489.5 L93,486.5 C93,486.223858 93.2238576,486 93.5,486 Z M93.5,480 C93.7454599,480 93.9496084,480.176875 93.9919443,480.410124 L94,480.5 L94,483.5 C94,483.776142 93.7761424,484 93.5,484 C93.2545401,484 93.0503916,483.823125 93.0080557,483.589876 L93,483.5 L93,480.5 C93,480.223858 93.2238576,480 93.5,480 Z M93.5,474 C93.7454599,474 93.9496084,474.176875 93.9919443,474.410124 L94,474.5 L94,477.5 C94,477.776142 93.7761424,478 93.5,478 C93.2545401,478 93.0503916,477.823125 93.0080557,477.589876 L93,477.5 L93,474.5 C93,474.223858 93.2238576,474 93.5,474 Z M93.5,468 C93.7454599,468 93.9496084,468.176875 93.9919443,468.410124 L94,468.5 L94,471.5 C94,471.776142 93.7761424,472 93.5,472 C93.2545401,472 93.0503916,471.823125 93.0080557,471.589876 L93,471.5 L93,468.5 C93,468.223858 93.2238576,468 93.5,468 Z M93.5,462 C93.7454599,462 93.9496084,462.176875 93.9919443,462.410124 L94,462.5 L94,465.5 C94,465.776142 93.7761424,466 93.5,466 C93.2545401,466 93.0503916,465.823125 93.0080557,465.589876 L93,465.5 L93,462.5 C93,462.223858 93.2238576,462 93.5,462 Z M93.5,456 C93.7454599,456 93.9496084,456.176875 93.9919443,456.410124 L94,456.5 L94,459.5 C94,459.776142 93.7761424,460 93.5,460 C93.2545401,460 93.0503916,459.823125 93.0080557,459.589876 L93,459.5 L93,456.5 C93,456.223858 93.2238576,456 93.5,456 Z M93.5,450 C93.7454599,450 93.9496084,450.176875 93.9919443,450.410124 L94,450.5 L94,453.5 C94,453.776142 93.7761424,454 93.5,454 C93.2545401,454 93.0503916,453.823125 93.0080557,453.589876 L93,453.5 L93,450.5 C93,450.223858 93.2238576,450 93.5,450 Z M93.5,444 C93.7454599,444 93.9496084,444.176875 93.9919443,444.410124 L94,444.5 L94,447.5 C94,447.776142 93.7761424,448 93.5,448 C93.2545401,448 93.0503916,447.823125 93.0080557,447.589876 L93,447.5 L93,444.5 C93,444.223858 93.2238576,444 93.5,444 Z M93.5,438 C93.7454599,438 93.9496084,438.176875 93.9919443,438.410124 L94,438.5 L94,441.5 C94,441.776142 93.7761424,442 93.5,442 C93.2545401,442 93.0503916,441.823125 93.0080557,441.589876 L93,441.5 L93,438.5 C93,438.223858 93.2238576,438 93.5,438 Z M93.5,432 C93.7454599,432 93.9496084,432.176875 93.9919443,432.410124 L94,432.5 L94,435.5 C94,435.776142 93.7761424,436 93.5,436 C93.2545401,436 93.0503916,435.823125 93.0080557,435.589876 L93,435.5 L93,432.5 C93,432.223858 93.2238576,432 93.5,432 Z M93.5,426 C93.7454599,426 93.9496084,426.176875 93.9919443,426.410124 L94,426.5 L94,429.5 C94,429.776142 93.7761424,430 93.5,430 C93.2545401,430 93.0503916,429.823125 93.0080557,429.589876 L93,429.5 L93,426.5 C93,426.223858 93.2238576,426 93.5,426 Z M93.5,420 C93.7454599,420 93.9496084,420.176875 93.9919443,420.410124 L94,420.5 L94,423.5 C94,423.776142 93.7761424,424 93.5,424 C93.2545401,424 93.0503916,423.823125 93.0080557,423.589876 L93,423.5 L93,420.5 C93,420.223858 93.2238576,420 93.5,420 Z M93.5,414 C93.7454599,414 93.9496084,414.176875 93.9919443,414.410124 L94,414.5 L94,417.5 C94,417.776142 93.7761424,418 93.5,418 C93.2545401,418 93.0503916,417.823125 93.0080557,417.589876 L93,417.5 L93,414.5 C93,414.223858 93.2238576,414 93.5,414 Z M93.5,408 C93.7454599,408 93.9496084,408.176875 93.9919443,408.410124 L94,408.5 L94,411.5 C94,411.776142 93.7761424,412 93.5,412 C93.2545401,412 93.0503916,411.823125 93.0080557,411.589876 L93,411.5 L93,408.5 C93,408.223858 93.2238576,408 93.5,408 Z M93.5,402 C93.7454599,402 93.9496084,402.176875 93.9919443,402.410124 L94,402.5 L94,405.5 C94,405.776142 93.7761424,406 93.5,406 C93.2545401,406 93.0503916,405.823125 93.0080557,405.589876 L93,405.5 L93,402.5 C93,402.223858 93.2238576,402 93.5,402 Z M93.5,396 C93.7454599,396 93.9496084,396.176875 93.9919443,396.410124 L94,396.5 L94,399.5 C94,399.776142 93.7761424,400 93.5,400 C93.2545401,400 93.0503916,399.823125 93.0080557,399.589876 L93,399.5 L93,396.5 C93,396.223858 93.2238576,396 93.5,396 Z M93.5,390 C93.7454599,390 93.9496084,390.176875 93.9919443,390.410124 L94,390.5 L94,393.5 C94,393.776142 93.7761424,394 93.5,394 C93.2545401,394 93.0503916,393.823125 93.0080557,393.589876 L93,393.5 L93,390.5 C93,390.223858 93.2238576,390 93.5,390 Z M93.5,384 C93.7454599,384 93.9496084,384.176875 93.9919443,384.410124 L94,384.5 L94,387.5 C94,387.776142 93.7761424,388 93.5,388 C93.2545401,388 93.0503916,387.823125 93.0080557,387.589876 L93,387.5 L93,384.5 C93,384.223858 93.2238576,384 93.5,384 Z M93.5,378 C93.7454599,378 93.9496084,378.176875 93.9919443,378.410124 L94,378.5 L94,381.5 C94,381.776142 93.7761424,382 93.5,382 C93.2545401,382 93.0503916,381.823125 93.0080557,381.589876 L93,381.5 L93,378.5 C93,378.223858 93.2238576,378 93.5,378 Z M93.5,372 C93.7454599,372 93.9496084,372.176875 93.9919443,372.410124 L94,372.5 L94,375.5 C94,375.776142 93.7761424,376 93.5,376 C93.2545401,376 93.0503916,375.823125 93.0080557,375.589876 L93,375.5 L93,372.5 C93,372.223858 93.2238576,372 93.5,372 Z M93.5,366 C93.7454599,366 93.9496084,366.176875 93.9919443,366.410124 L94,366.5 L94,369.5 C94,369.776142 93.7761424,370 93.5,370 C93.2545401,370 93.0503916,369.823125 93.0080557,369.589876 L93,369.5 L93,366.5 C93,366.223858 93.2238576,366 93.5,366 Z M93.5,360 C93.7454599,360 93.9496084,360.176875 93.9919443,360.410124 L94,360.5 L94,363.5 C94,363.776142 93.7761424,364 93.5,364 C93.2545401,364 93.0503916,363.823125 93.0080557,363.589876 L93,363.5 L93,360.5 C93,360.223858 93.2238576,360 93.5,360 Z M93.5,354 C93.7454599,354 93.9496084,354.176875 93.9919443,354.410124 L94,354.5 L94,357.5 C94,357.776142 93.7761424,358 93.5,358 C93.2545401,358 93.0503916,357.823125 93.0080557,357.589876 L93,357.5 L93,354.5 C93,354.223858 93.2238576,354 93.5,354 Z M93.5,348 C93.7454599,348 93.9496084,348.176875 93.9919443,348.410124 L94,348.5 L94,351.5 C94,351.776142 93.7761424,352 93.5,352 C93.2545401,352 93.0503916,351.823125 93.0080557,351.589876 L93,351.5 L93,348.5 C93,348.223858 93.2238576,348 93.5,348 Z M93.5,342 C93.7454599,342 93.9496084,342.176875 93.9919443,342.410124 L94,342.5 L94,345.5 C94,345.776142 93.7761424,346 93.5,346 C93.2545401,346 93.0503916,345.823125 93.0080557,345.589876 L93,345.5 L93,342.5 C93,342.223858 93.2238576,342 93.5,342 Z M93.5,336 C93.7454599,336 93.9496084,336.176875 93.9919443,336.410124 L94,336.5 L94,339.5 C94,339.776142 93.7761424,340 93.5,340 C93.2545401,340 93.0503916,339.823125 93.0080557,339.589876 L93,339.5 L93,336.5 C93,336.223858 93.2238576,336 93.5,336 Z M93.5,330 C93.7454599,330 93.9496084,330.176875 93.9919443,330.410124 L94,330.5 L94,333.5 C94,333.776142 93.7761424,334 93.5,334 C93.2545401,334 93.0503916,333.823125 93.0080557,333.589876 L93,333.5 L93,330.5 C93,330.223858 93.2238576,330 93.5,330 Z M93.5,324 C93.7454599,324 93.9496084,324.176875 93.9919443,324.410124 L94,324.5 L94,327.5 C94,327.776142 93.7761424,328 93.5,328 C93.2545401,328 93.0503916,327.823125 93.0080557,327.589876 L93,327.5 L93,324.5 C93,324.223858 93.2238576,324 93.5,324 Z M93.5,318 C93.7454599,318 93.9496084,318.176875 93.9919443,318.410124 L94,318.5 L94,321.5 C94,321.776142 93.7761424,322 93.5,322 C93.2545401,322 93.0503916,321.823125 93.0080557,321.589876 L93,321.5 L93,318.5 C93,318.223858 93.2238576,318 93.5,318 Z M93.5,312 C93.7454599,312 93.9496084,312.176875 93.9919443,312.410124 L94,312.5 L94,315.5 C94,315.776142 93.7761424,316 93.5,316 C93.2545401,316 93.0503916,315.823125 93.0080557,315.589876 L93,315.5 L93,312.5 C93,312.223858 93.2238576,312 93.5,312 Z M93.5,306 C93.7454599,306 93.9496084,306.176875 93.9919443,306.410124 L94,306.5 L94,309.5 C94,309.776142 93.7761424,310 93.5,310 C93.2545401,310 93.0503916,309.823125 93.0080557,309.589876 L93,309.5 L93,306.5 C93,306.223858 93.2238576,306 93.5,306 Z M93.5,300 C93.7454599,300 93.9496084,300.176875 93.9919443,300.410124 L94,300.5 L94,303.5 C94,303.776142 93.7761424,304 93.5,304 C93.2545401,304 93.0503916,303.823125 93.0080557,303.589876 L93,303.5 L93,300.5 C93,300.223858 93.2238576,300 93.5,300 Z M93.5,294 C93.7454599,294 93.9496084,294.176875 93.9919443,294.410124 L94,294.5 L94,297.5 C94,297.776142 93.7761424,298 93.5,298 C93.2545401,298 93.0503916,297.823125 93.0080557,297.589876 L93,297.5 L93,294.5 C93,294.223858 93.2238576,294 93.5,294 Z M93.5,288 C93.7454599,288 93.9496084,288.176875 93.9919443,288.410124 L94,288.5 L94,291.5 C94,291.776142 93.7761424,292 93.5,292 C93.2545401,292 93.0503916,291.823125 93.0080557,291.589876 L93,291.5 L93,288.5 C93,288.223858 93.2238576,288 93.5,288 Z M93.5,282 C93.7454599,282 93.9496084,282.176875 93.9919443,282.410124 L94,282.5 L94,285.5 C94,285.776142 93.7761424,286 93.5,286 C93.2545401,286 93.0503916,285.823125 93.0080557,285.589876 L93,285.5 L93,282.5 C93,282.223858 93.2238576,282 93.5,282 Z M93.5,276 C93.7454599,276 93.9496084,276.176875 93.9919443,276.410124 L94,276.5 L94,279.5 C94,279.776142 93.7761424,280 93.5,280 C93.2545401,280 93.0503916,279.823125 93.0080557,279.589876 L93,279.5 L93,276.5 C93,276.223858 93.2238576,276 93.5,276 Z M93.5,270 C93.7454599,270 93.9496084,270.176875 93.9919443,270.410124 L94,270.5 L94,273.5 C94,273.776142 93.7761424,274 93.5,274 C93.2545401,274 93.0503916,273.823125 93.0080557,273.589876 L93,273.5 L93,270.5 C93,270.223858 93.2238576,270 93.5,270 Z M93.5,264 C93.7454599,264 93.9496084,264.176875 93.9919443,264.410124 L94,264.5 L94,267.5 C94,267.776142 93.7761424,268 93.5,268 C93.2545401,268 93.0503916,267.823125 93.0080557,267.589876 L93,267.5 L93,264.5 C93,264.223858 93.2238576,264 93.5,264 Z M93.5,258 C93.7454599,258 93.9496084,258.176875 93.9919443,258.410124 L94,258.5 L94,261.5 C94,261.776142 93.7761424,262 93.5,262 C93.2545401,262 93.0503916,261.823125 93.0080557,261.589876 L93,261.5 L93,258.5 C93,258.223858 93.2238576,258 93.5,258 Z M93.5,252 C93.7454599,252 93.9496084,252.176875 93.9919443,252.410124 L94,252.5 L94,255.5 C94,255.776142 93.7761424,256 93.5,256 C93.2545401,256 93.0503916,255.823125 93.0080557,255.589876 L93,255.5 L93,252.5 C93,252.223858 93.2238576,252 93.5,252 Z M93.5,246 C93.7454599,246 93.9496084,246.176875 93.9919443,246.410124 L94,246.5 L94,249.5 C94,249.776142 93.7761424,250 93.5,250 C93.2545401,250 93.0503916,249.823125 93.0080557,249.589876 L93,249.5 L93,246.5 C93,246.223858 93.2238576,246 93.5,246 Z M93.5,240 C93.7454599,240 93.9496084,240.176875 93.9919443,240.410124 L94,240.5 L94,243.5 C94,243.776142 93.7761424,244 93.5,244 C93.2545401,244 93.0503916,243.823125 93.0080557,243.589876 L93,243.5 L93,240.5 C93,240.223858 93.2238576,240 93.5,240 Z M93.5,234 C93.7454599,234 93.9496084,234.176875 93.9919443,234.410124 L94,234.5 L94,237.5 C94,237.776142 93.7761424,238 93.5,238 C93.2545401,238 93.0503916,237.823125 93.0080557,237.589876 L93,237.5 L93,234.5 C93,234.223858 93.2238576,234 93.5,234 Z M93.5,228 C93.7454599,228 93.9496084,228.176875 93.9919443,228.410124 L94,228.5 L94,231.5 C94,231.776142 93.7761424,232 93.5,232 C93.2545401,232 93.0503916,231.823125 93.0080557,231.589876 L93,231.5 L93,228.5 C93,228.223858 93.2238576,228 93.5,228 Z M93.5,222 C93.7454599,222 93.9496084,222.176875 93.9919443,222.410124 L94,222.5 L94,225.5 C94,225.776142 93.7761424,226 93.5,226 C93.2545401,226 93.0503916,225.823125 93.0080557,225.589876 L93,225.5 L93,222.5 C93,222.223858 93.2238576,222 93.5,222 Z M93.5,216 C93.7454599,216 93.9496084,216.176875 93.9919443,216.410124 L94,216.5 L94,219.5 C94,219.776142 93.7761424,220 93.5,220 C93.2545401,220 93.0503916,219.823125 93.0080557,219.589876 L93,219.5 L93,216.5 C93,216.223858 93.2238576,216 93.5,216 Z M93.5,210 C93.7454599,210 93.9496084,210.176875 93.9919443,210.410124 L94,210.5 L94,213.5 C94,213.776142 93.7761424,214 93.5,214 C93.2545401,214 93.0503916,213.823125 93.0080557,213.589876 L93,213.5 L93,210.5 C93,210.223858 93.2238576,210 93.5,210 Z M93.5,204 C93.7454599,204 93.9496084,204.176875 93.9919443,204.410124 L94,204.5 L94,207.5 C94,207.776142 93.7761424,208 93.5,208 C93.2545401,208 93.0503916,207.823125 93.0080557,207.589876 L93,207.5 L93,204.5 C93,204.223858 93.2238576,204 93.5,204 Z M93.5,198 C93.7454599,198 93.9496084,198.176875 93.9919443,198.410124 L94,198.5 L94,201.5 C94,201.776142 93.7761424,202 93.5,202 C93.2545401,202 93.0503916,201.823125 93.0080557,201.589876 L93,201.5 L93,198.5 C93,198.223858 93.2238576,198 93.5,198 Z M93.5,192 C93.7454599,192 93.9496084,192.176875 93.9919443,192.410124 L94,192.5 L94,195.5 C94,195.776142 93.7761424,196 93.5,196 C93.2545401,196 93.0503916,195.823125 93.0080557,195.589876 L93,195.5 L93,192.5 C93,192.223858 93.2238576,192 93.5,192 Z M93.5,186 C93.7454599,186 93.9496084,186.176875 93.9919443,186.410124 L94,186.5 L94,189.5 C94,189.776142 93.7761424,190 93.5,190 C93.2545401,190 93.0503916,189.823125 93.0080557,189.589876 L93,189.5 L93,186.5 C93,186.223858 93.2238576,186 93.5,186 Z M93.5,180 C93.7454599,180 93.9496084,180.176875 93.9919443,180.410124 L94,180.5 L94,183.5 C94,183.776142 93.7761424,184 93.5,184 C93.2545401,184 93.0503916,183.823125 93.0080557,183.589876 L93,183.5 L93,180.5 C93,180.223858 93.2238576,180 93.5,180 Z M93.5,174 C93.7454599,174 93.9496084,174.176875 93.9919443,174.410124 L94,174.5 L94,177.5 C94,177.776142 93.7761424,178 93.5,178 C93.2545401,178 93.0503916,177.823125 93.0080557,177.589876 L93,177.5 L93,174.5 C93,174.223858 93.2238576,174 93.5,174 Z M93.5,168 C93.7454599,168 93.9496084,168.176875 93.9919443,168.410124 L94,168.5 L94,171.5 C94,171.776142 93.7761424,172 93.5,172 C93.2545401,172 93.0503916,171.823125 93.0080557,171.589876 L93,171.5 L93,168.5 C93,168.223858 93.2238576,168 93.5,168 Z M93.5,162 C93.7454599,162 93.9496084,162.176875 93.9919443,162.410124 L94,162.5 L94,165.5 C94,165.776142 93.7761424,166 93.5,166 C93.2545401,166 93.0503916,165.823125 93.0080557,165.589876 L93,165.5 L93,162.5 C93,162.223858 93.2238576,162 93.5,162 Z M93.5,156 C93.7454599,156 93.9496084,156.176875 93.9919443,156.410124 L94,156.5 L94,159.5 C94,159.776142 93.7761424,160 93.5,160 C93.2545401,160 93.0503916,159.823125 93.0080557,159.589876 L93,159.5 L93,156.5 C93,156.223858 93.2238576,156 93.5,156 Z M93.5,150 C93.7454599,150 93.9496084,150.176875 93.9919443,150.410124 L94,150.5 L94,153.5 C94,153.776142 93.7761424,154 93.5,154 C93.2545401,154 93.0503916,153.823125 93.0080557,153.589876 L93,153.5 L93,150.5 C93,150.223858 93.2238576,150 93.5,150 Z M93.5,144 C93.7454599,144 93.9496084,144.176875 93.9919443,144.410124 L94,144.5 L94,147.5 C94,147.776142 93.7761424,148 93.5,148 C93.2545401,148 93.0503916,147.823125 93.0080557,147.589876 L93,147.5 L93,144.5 C93,144.223858 93.2238576,144 93.5,144 Z M93.5,138 C93.7454599,138 93.9496084,138.176875 93.9919443,138.410124 L94,138.5 L94,141.5 C94,141.776142 93.7761424,142 93.5,142 C93.2545401,142 93.0503916,141.823125 93.0080557,141.589876 L93,141.5 L93,138.5 C93,138.223858 93.2238576,138 93.5,138 Z M93.5,132 C93.7454599,132 93.9496084,132.176875 93.9919443,132.410124 L94,132.5 L94,135.5 C94,135.776142 93.7761424,136 93.5,136 C93.2545401,136 93.0503916,135.823125 93.0080557,135.589876 L93,135.5 L93,132.5 C93,132.223858 93.2238576,132 93.5,132 Z M93.5,126 C93.7454599,126 93.9496084,126.176875 93.9919443,126.410124 L94,126.5 L94,129.5 C94,129.776142 93.7761424,130 93.5,130 C93.2545401,130 93.0503916,129.823125 93.0080557,129.589876 L93,129.5 L93,126.5 C93,126.223858 93.2238576,126 93.5,126 Z M93.5,120 C93.7454599,120 93.9496084,120.176875 93.9919443,120.410124 L94,120.5 L94,123.5 C94,123.776142 93.7761424,124 93.5,124 C93.2545401,124 93.0503916,123.823125 93.0080557,123.589876 L93,123.5 L93,120.5 C93,120.223858 93.2238576,120 93.5,120 Z M93.5,114 C93.7454599,114 93.9496084,114.176875 93.9919443,114.410124 L94,114.5 L94,117.5 C94,117.776142 93.7761424,118 93.5,118 C93.2545401,118 93.0503916,117.823125 93.0080557,117.589876 L93,117.5 L93,114.5 C93,114.223858 93.2238576,114 93.5,114 Z M93.5,108 C93.7454599,108 93.9496084,108.176875 93.9919443,108.410124 L94,108.5 L94,111.5 C94,111.776142 93.7761424,112 93.5,112 C93.2545401,112 93.0503916,111.823125 93.0080557,111.589876 L93,111.5 L93,108.5 C93,108.223858 93.2238576,108 93.5,108 Z M93.5,102 C93.7454599,102 93.9496084,102.176875 93.9919443,102.410124 L94,102.5 L94,105.5 C94,105.776142 93.7761424,106 93.5,106 C93.2545401,106 93.0503916,105.823125 93.0080557,105.589876 L93,105.5 L93,102.5 C93,102.223858 93.2238576,102 93.5,102 Z M93.5,96 C93.7454599,96 93.9496084,96.1768752 93.9919443,96.4101244 L94,96.5 L94,99.5 C94,99.7761424 93.7761424,100 93.5,100 C93.2545401,100 93.0503916,99.8231248 93.0080557,99.5898756 L93,99.5 L93,96.5 C93,96.2238576 93.2238576,96 93.5,96 Z M93.5,90 C93.7454599,90 93.9496084,90.1768752 93.9919443,90.4101244 L94,90.5 L94,93.5 C94,93.7761424 93.7761424,94 93.5,94 C93.2545401,94 93.0503916,93.8231248 93.0080557,93.5898756 L93,93.5 L93,90.5 C93,90.2238576 93.2238576,90 93.5,90 Z M93.5,84 C93.7454599,84 93.9496084,84.1768752 93.9919443,84.4101244 L94,84.5 L94,87.5 C94,87.7761424 93.7761424,88 93.5,88 C93.2545401,88 93.0503916,87.8231248 93.0080557,87.5898756 L93,87.5 L93,84.5 C93,84.2238576 93.2238576,84 93.5,84 Z M93.5,78 C93.7454599,78 93.9496084,78.1768752 93.9919443,78.4101244 L94,78.5 L94,81.5 C94,81.7761424 93.7761424,82 93.5,82 C93.2545401,82 93.0503916,81.8231248 93.0080557,81.5898756 L93,81.5 L93,78.5 C93,78.2238576 93.2238576,78 93.5,78 Z M93.5,72 C93.7454599,72 93.9496084,72.1768752 93.9919443,72.4101244 L94,72.5 L94,75.5 C94,75.7761424 93.7761424,76 93.5,76 C93.2545401,76 93.0503916,75.8231248 93.0080557,75.5898756 L93,75.5 L93,72.5 C93,72.2238576 93.2238576,72 93.5,72 Z M93.5,66 C93.7454599,66 93.9496084,66.1768752 93.9919443,66.4101244 L94,66.5 L94,69.5 C94,69.7761424 93.7761424,70 93.5,70 C93.2545401,70 93.0503916,69.8231248 93.0080557,69.5898756 L93,69.5 L93,66.5 C93,66.2238576 93.2238576,66 93.5,66 Z M93.5,60 C93.7454599,60 93.9496084,60.1768752 93.9919443,60.4101244 L94,60.5 L94,63.5 C94,63.7761424 93.7761424,64 93.5,64 C93.2545401,64 93.0503916,63.8231248 93.0080557,63.5898756 L93,63.5 L93,60.5 C93,60.2238576 93.2238576,60 93.5,60 Z M93.5,46 C95.9852814,46 98,48.0147186 98,50.5 C98,52.8160341 96.2503421,54.7234136 94.0007074,54.9724574 L94,57.5 C94,57.7761424 93.7761424,58 93.5,58 C93.2545401,58 93.0503916,57.8231248 93.0080557,57.5898756 L93,57.5 L93.000297,54.9725684 C90.7501788,54.7239814 89,52.8163788 89,50.5 C89,48.0147186 91.0147186,46 93.5,46 Z M93.5,47 C91.5670034,47 90,48.5670034 90,50.5 C90,52.4329966 91.5670034,54 93.5,54 C95.4329966,54 97,52.4329966 97,50.5 C97,48.5670034 95.4329966,47 93.5,47 Z" fill="#979797" fill-rule="nonzero"></path>
                <path id="Line-5" d="M225.5,492 C225.74546,492 225.949608,492.176875 225.991944,492.410124 L226,492.5 L226.000707,495.027543 C228.250342,495.276586 230,497.183966 230,499.5 C230,501.985281 227.985281,504 225.5,504 C223.014719,504 221,501.985281 221,499.5 C221,497.183621 222.750179,495.276019 225.000297,495.027432 L225,492.5 C225,492.223858 225.223858,492 225.5,492 Z M225.5,496 C223.567003,496 222,497.567003 222,499.5 C222,501.432997 223.567003,503 225.5,503 C227.432997,503 229,501.432997 229,499.5 C229,497.567003 227.432997,496 225.5,496 Z M225.5,486 C225.74546,486 225.949608,486.176875 225.991944,486.410124 L226,486.5 L226,489.5 C226,489.776142 225.776142,490 225.5,490 C225.25454,490 225.050392,489.823125 225.008056,489.589876 L225,489.5 L225,486.5 C225,486.223858 225.223858,486 225.5,486 Z M225.5,480 C225.74546,480 225.949608,480.176875 225.991944,480.410124 L226,480.5 L226,483.5 C226,483.776142 225.776142,484 225.5,484 C225.25454,484 225.050392,483.823125 225.008056,483.589876 L225,483.5 L225,480.5 C225,480.223858 225.223858,480 225.5,480 Z M225.5,474 C225.74546,474 225.949608,474.176875 225.991944,474.410124 L226,474.5 L226,477.5 C226,477.776142 225.776142,478 225.5,478 C225.25454,478 225.050392,477.823125 225.008056,477.589876 L225,477.5 L225,474.5 C225,474.223858 225.223858,474 225.5,474 Z M225.5,468 C225.74546,468 225.949608,468.176875 225.991944,468.410124 L226,468.5 L226,471.5 C226,471.776142 225.776142,472 225.5,472 C225.25454,472 225.050392,471.823125 225.008056,471.589876 L225,471.5 L225,468.5 C225,468.223858 225.223858,468 225.5,468 Z M225.5,462 C225.74546,462 225.949608,462.176875 225.991944,462.410124 L226,462.5 L226,465.5 C226,465.776142 225.776142,466 225.5,466 C225.25454,466 225.050392,465.823125 225.008056,465.589876 L225,465.5 L225,462.5 C225,462.223858 225.223858,462 225.5,462 Z M225.5,456 C225.74546,456 225.949608,456.176875 225.991944,456.410124 L226,456.5 L226,459.5 C226,459.776142 225.776142,460 225.5,460 C225.25454,460 225.050392,459.823125 225.008056,459.589876 L225,459.5 L225,456.5 C225,456.223858 225.223858,456 225.5,456 Z M225.5,450 C225.74546,450 225.949608,450.176875 225.991944,450.410124 L226,450.5 L226,453.5 C226,453.776142 225.776142,454 225.5,454 C225.25454,454 225.050392,453.823125 225.008056,453.589876 L225,453.5 L225,450.5 C225,450.223858 225.223858,450 225.5,450 Z M225.5,444 C225.74546,444 225.949608,444.176875 225.991944,444.410124 L226,444.5 L226,447.5 C226,447.776142 225.776142,448 225.5,448 C225.25454,448 225.050392,447.823125 225.008056,447.589876 L225,447.5 L225,444.5 C225,444.223858 225.223858,444 225.5,444 Z M225.5,438 C225.74546,438 225.949608,438.176875 225.991944,438.410124 L226,438.5 L226,441.5 C226,441.776142 225.776142,442 225.5,442 C225.25454,442 225.050392,441.823125 225.008056,441.589876 L225,441.5 L225,438.5 C225,438.223858 225.223858,438 225.5,438 Z M225.5,432 C225.74546,432 225.949608,432.176875 225.991944,432.410124 L226,432.5 L226,435.5 C226,435.776142 225.776142,436 225.5,436 C225.25454,436 225.050392,435.823125 225.008056,435.589876 L225,435.5 L225,432.5 C225,432.223858 225.223858,432 225.5,432 Z M225.5,426 C225.74546,426 225.949608,426.176875 225.991944,426.410124 L226,426.5 L226,429.5 C226,429.776142 225.776142,430 225.5,430 C225.25454,430 225.050392,429.823125 225.008056,429.589876 L225,429.5 L225,426.5 C225,426.223858 225.223858,426 225.5,426 Z M225.5,420 C225.74546,420 225.949608,420.176875 225.991944,420.410124 L226,420.5 L226,423.5 C226,423.776142 225.776142,424 225.5,424 C225.25454,424 225.050392,423.823125 225.008056,423.589876 L225,423.5 L225,420.5 C225,420.223858 225.223858,420 225.5,420 Z M225.5,414 C225.74546,414 225.949608,414.176875 225.991944,414.410124 L226,414.5 L226,417.5 C226,417.776142 225.776142,418 225.5,418 C225.25454,418 225.050392,417.823125 225.008056,417.589876 L225,417.5 L225,414.5 C225,414.223858 225.223858,414 225.5,414 Z M225.5,408 C225.74546,408 225.949608,408.176875 225.991944,408.410124 L226,408.5 L226,411.5 C226,411.776142 225.776142,412 225.5,412 C225.25454,412 225.050392,411.823125 225.008056,411.589876 L225,411.5 L225,408.5 C225,408.223858 225.223858,408 225.5,408 Z M225.5,402 C225.74546,402 225.949608,402.176875 225.991944,402.410124 L226,402.5 L226,405.5 C226,405.776142 225.776142,406 225.5,406 C225.25454,406 225.050392,405.823125 225.008056,405.589876 L225,405.5 L225,402.5 C225,402.223858 225.223858,402 225.5,402 Z M225.5,396 C225.74546,396 225.949608,396.176875 225.991944,396.410124 L226,396.5 L226,399.5 C226,399.776142 225.776142,400 225.5,400 C225.25454,400 225.050392,399.823125 225.008056,399.589876 L225,399.5 L225,396.5 C225,396.223858 225.223858,396 225.5,396 Z M225.5,390 C225.74546,390 225.949608,390.176875 225.991944,390.410124 L226,390.5 L226,393.5 C226,393.776142 225.776142,394 225.5,394 C225.25454,394 225.050392,393.823125 225.008056,393.589876 L225,393.5 L225,390.5 C225,390.223858 225.223858,390 225.5,390 Z M225.5,384 C225.74546,384 225.949608,384.176875 225.991944,384.410124 L226,384.5 L226,387.5 C226,387.776142 225.776142,388 225.5,388 C225.25454,388 225.050392,387.823125 225.008056,387.589876 L225,387.5 L225,384.5 C225,384.223858 225.223858,384 225.5,384 Z M225.5,378 C225.74546,378 225.949608,378.176875 225.991944,378.410124 L226,378.5 L226,381.5 C226,381.776142 225.776142,382 225.5,382 C225.25454,382 225.050392,381.823125 225.008056,381.589876 L225,381.5 L225,378.5 C225,378.223858 225.223858,378 225.5,378 Z M225.5,372 C225.74546,372 225.949608,372.176875 225.991944,372.410124 L226,372.5 L226,375.5 C226,375.776142 225.776142,376 225.5,376 C225.25454,376 225.050392,375.823125 225.008056,375.589876 L225,375.5 L225,372.5 C225,372.223858 225.223858,372 225.5,372 Z M225.5,366 C225.74546,366 225.949608,366.176875 225.991944,366.410124 L226,366.5 L226,369.5 C226,369.776142 225.776142,370 225.5,370 C225.25454,370 225.050392,369.823125 225.008056,369.589876 L225,369.5 L225,366.5 C225,366.223858 225.223858,366 225.5,366 Z M225.5,360 C225.74546,360 225.949608,360.176875 225.991944,360.410124 L226,360.5 L226,363.5 C226,363.776142 225.776142,364 225.5,364 C225.25454,364 225.050392,363.823125 225.008056,363.589876 L225,363.5 L225,360.5 C225,360.223858 225.223858,360 225.5,360 Z M225.5,354 C225.74546,354 225.949608,354.176875 225.991944,354.410124 L226,354.5 L226,357.5 C226,357.776142 225.776142,358 225.5,358 C225.25454,358 225.050392,357.823125 225.008056,357.589876 L225,357.5 L225,354.5 C225,354.223858 225.223858,354 225.5,354 Z M225.5,348 C225.74546,348 225.949608,348.176875 225.991944,348.410124 L226,348.5 L226,351.5 C226,351.776142 225.776142,352 225.5,352 C225.25454,352 225.050392,351.823125 225.008056,351.589876 L225,351.5 L225,348.5 C225,348.223858 225.223858,348 225.5,348 Z M225.5,342 C225.74546,342 225.949608,342.176875 225.991944,342.410124 L226,342.5 L226,345.5 C226,345.776142 225.776142,346 225.5,346 C225.25454,346 225.050392,345.823125 225.008056,345.589876 L225,345.5 L225,342.5 C225,342.223858 225.223858,342 225.5,342 Z M225.5,336 C225.74546,336 225.949608,336.176875 225.991944,336.410124 L226,336.5 L226,339.5 C226,339.776142 225.776142,340 225.5,340 C225.25454,340 225.050392,339.823125 225.008056,339.589876 L225,339.5 L225,336.5 C225,336.223858 225.223858,336 225.5,336 Z M225.5,330 C225.74546,330 225.949608,330.176875 225.991944,330.410124 L226,330.5 L226,333.5 C226,333.776142 225.776142,334 225.5,334 C225.25454,334 225.050392,333.823125 225.008056,333.589876 L225,333.5 L225,330.5 C225,330.223858 225.223858,330 225.5,330 Z M225.5,324 C225.74546,324 225.949608,324.176875 225.991944,324.410124 L226,324.5 L226,327.5 C226,327.776142 225.776142,328 225.5,328 C225.25454,328 225.050392,327.823125 225.008056,327.589876 L225,327.5 L225,324.5 C225,324.223858 225.223858,324 225.5,324 Z M225.5,318 C225.74546,318 225.949608,318.176875 225.991944,318.410124 L226,318.5 L226,321.5 C226,321.776142 225.776142,322 225.5,322 C225.25454,322 225.050392,321.823125 225.008056,321.589876 L225,321.5 L225,318.5 C225,318.223858 225.223858,318 225.5,318 Z M225.5,312 C225.74546,312 225.949608,312.176875 225.991944,312.410124 L226,312.5 L226,315.5 C226,315.776142 225.776142,316 225.5,316 C225.25454,316 225.050392,315.823125 225.008056,315.589876 L225,315.5 L225,312.5 C225,312.223858 225.223858,312 225.5,312 Z M225.5,306 C225.74546,306 225.949608,306.176875 225.991944,306.410124 L226,306.5 L226,309.5 C226,309.776142 225.776142,310 225.5,310 C225.25454,310 225.050392,309.823125 225.008056,309.589876 L225,309.5 L225,306.5 C225,306.223858 225.223858,306 225.5,306 Z M225.5,300 C225.74546,300 225.949608,300.176875 225.991944,300.410124 L226,300.5 L226,303.5 C226,303.776142 225.776142,304 225.5,304 C225.25454,304 225.050392,303.823125 225.008056,303.589876 L225,303.5 L225,300.5 C225,300.223858 225.223858,300 225.5,300 Z M225.5,294 C225.74546,294 225.949608,294.176875 225.991944,294.410124 L226,294.5 L226,297.5 C226,297.776142 225.776142,298 225.5,298 C225.25454,298 225.050392,297.823125 225.008056,297.589876 L225,297.5 L225,294.5 C225,294.223858 225.223858,294 225.5,294 Z M225.5,288 C225.74546,288 225.949608,288.176875 225.991944,288.410124 L226,288.5 L226,291.5 C226,291.776142 225.776142,292 225.5,292 C225.25454,292 225.050392,291.823125 225.008056,291.589876 L225,291.5 L225,288.5 C225,288.223858 225.223858,288 225.5,288 Z M225.5,282 C225.74546,282 225.949608,282.176875 225.991944,282.410124 L226,282.5 L226,285.5 C226,285.776142 225.776142,286 225.5,286 C225.25454,286 225.050392,285.823125 225.008056,285.589876 L225,285.5 L225,282.5 C225,282.223858 225.223858,282 225.5,282 Z M225.5,276 C225.74546,276 225.949608,276.176875 225.991944,276.410124 L226,276.5 L226,279.5 C226,279.776142 225.776142,280 225.5,280 C225.25454,280 225.050392,279.823125 225.008056,279.589876 L225,279.5 L225,276.5 C225,276.223858 225.223858,276 225.5,276 Z M225.5,270 C225.74546,270 225.949608,270.176875 225.991944,270.410124 L226,270.5 L226,273.5 C226,273.776142 225.776142,274 225.5,274 C225.25454,274 225.050392,273.823125 225.008056,273.589876 L225,273.5 L225,270.5 C225,270.223858 225.223858,270 225.5,270 Z M225.5,264 C225.74546,264 225.949608,264.176875 225.991944,264.410124 L226,264.5 L226,267.5 C226,267.776142 225.776142,268 225.5,268 C225.25454,268 225.050392,267.823125 225.008056,267.589876 L225,267.5 L225,264.5 C225,264.223858 225.223858,264 225.5,264 Z M225.5,258 C225.74546,258 225.949608,258.176875 225.991944,258.410124 L226,258.5 L226,261.5 C226,261.776142 225.776142,262 225.5,262 C225.25454,262 225.050392,261.823125 225.008056,261.589876 L225,261.5 L225,258.5 C225,258.223858 225.223858,258 225.5,258 Z M225.5,252 C225.74546,252 225.949608,252.176875 225.991944,252.410124 L226,252.5 L226,255.5 C226,255.776142 225.776142,256 225.5,256 C225.25454,256 225.050392,255.823125 225.008056,255.589876 L225,255.5 L225,252.5 C225,252.223858 225.223858,252 225.5,252 Z M225.5,246 C225.74546,246 225.949608,246.176875 225.991944,246.410124 L226,246.5 L226,249.5 C226,249.776142 225.776142,250 225.5,250 C225.25454,250 225.050392,249.823125 225.008056,249.589876 L225,249.5 L225,246.5 C225,246.223858 225.223858,246 225.5,246 Z M225.5,240 C225.74546,240 225.949608,240.176875 225.991944,240.410124 L226,240.5 L226,243.5 C226,243.776142 225.776142,244 225.5,244 C225.25454,244 225.050392,243.823125 225.008056,243.589876 L225,243.5 L225,240.5 C225,240.223858 225.223858,240 225.5,240 Z M225.5,234 C225.74546,234 225.949608,234.176875 225.991944,234.410124 L226,234.5 L226,237.5 C226,237.776142 225.776142,238 225.5,238 C225.25454,238 225.050392,237.823125 225.008056,237.589876 L225,237.5 L225,234.5 C225,234.223858 225.223858,234 225.5,234 Z M225.5,228 C225.74546,228 225.949608,228.176875 225.991944,228.410124 L226,228.5 L226,231.5 C226,231.776142 225.776142,232 225.5,232 C225.25454,232 225.050392,231.823125 225.008056,231.589876 L225,231.5 L225,228.5 C225,228.223858 225.223858,228 225.5,228 Z M225.5,222 C225.74546,222 225.949608,222.176875 225.991944,222.410124 L226,222.5 L226,225.5 C226,225.776142 225.776142,226 225.5,226 C225.25454,226 225.050392,225.823125 225.008056,225.589876 L225,225.5 L225,222.5 C225,222.223858 225.223858,222 225.5,222 Z M225.5,216 C225.74546,216 225.949608,216.176875 225.991944,216.410124 L226,216.5 L226,219.5 C226,219.776142 225.776142,220 225.5,220 C225.25454,220 225.050392,219.823125 225.008056,219.589876 L225,219.5 L225,216.5 C225,216.223858 225.223858,216 225.5,216 Z M225.5,210 C225.74546,210 225.949608,210.176875 225.991944,210.410124 L226,210.5 L226,213.5 C226,213.776142 225.776142,214 225.5,214 C225.25454,214 225.050392,213.823125 225.008056,213.589876 L225,213.5 L225,210.5 C225,210.223858 225.223858,210 225.5,210 Z M225.5,204 C225.74546,204 225.949608,204.176875 225.991944,204.410124 L226,204.5 L226,207.5 C226,207.776142 225.776142,208 225.5,208 C225.25454,208 225.050392,207.823125 225.008056,207.589876 L225,207.5 L225,204.5 C225,204.223858 225.223858,204 225.5,204 Z M225.5,198 C225.74546,198 225.949608,198.176875 225.991944,198.410124 L226,198.5 L226,201.5 C226,201.776142 225.776142,202 225.5,202 C225.25454,202 225.050392,201.823125 225.008056,201.589876 L225,201.5 L225,198.5 C225,198.223858 225.223858,198 225.5,198 Z M225.5,192 C225.74546,192 225.949608,192.176875 225.991944,192.410124 L226,192.5 L226,195.5 C226,195.776142 225.776142,196 225.5,196 C225.25454,196 225.050392,195.823125 225.008056,195.589876 L225,195.5 L225,192.5 C225,192.223858 225.223858,192 225.5,192 Z M225.5,186 C225.74546,186 225.949608,186.176875 225.991944,186.410124 L226,186.5 L226,189.5 C226,189.776142 225.776142,190 225.5,190 C225.25454,190 225.050392,189.823125 225.008056,189.589876 L225,189.5 L225,186.5 C225,186.223858 225.223858,186 225.5,186 Z M225.5,180 C225.74546,180 225.949608,180.176875 225.991944,180.410124 L226,180.5 L226,183.5 C226,183.776142 225.776142,184 225.5,184 C225.25454,184 225.050392,183.823125 225.008056,183.589876 L225,183.5 L225,180.5 C225,180.223858 225.223858,180 225.5,180 Z M225.5,174 C225.74546,174 225.949608,174.176875 225.991944,174.410124 L226,174.5 L226,177.5 C226,177.776142 225.776142,178 225.5,178 C225.25454,178 225.050392,177.823125 225.008056,177.589876 L225,177.5 L225,174.5 C225,174.223858 225.223858,174 225.5,174 Z M225.5,168 C225.74546,168 225.949608,168.176875 225.991944,168.410124 L226,168.5 L226,171.5 C226,171.776142 225.776142,172 225.5,172 C225.25454,172 225.050392,171.823125 225.008056,171.589876 L225,171.5 L225,168.5 C225,168.223858 225.223858,168 225.5,168 Z M225.5,162 C225.74546,162 225.949608,162.176875 225.991944,162.410124 L226,162.5 L226,165.5 C226,165.776142 225.776142,166 225.5,166 C225.25454,166 225.050392,165.823125 225.008056,165.589876 L225,165.5 L225,162.5 C225,162.223858 225.223858,162 225.5,162 Z M225.5,156 C225.74546,156 225.949608,156.176875 225.991944,156.410124 L226,156.5 L226,159.5 C226,159.776142 225.776142,160 225.5,160 C225.25454,160 225.050392,159.823125 225.008056,159.589876 L225,159.5 L225,156.5 C225,156.223858 225.223858,156 225.5,156 Z M225.5,150 C225.74546,150 225.949608,150.176875 225.991944,150.410124 L226,150.5 L226,153.5 C226,153.776142 225.776142,154 225.5,154 C225.25454,154 225.050392,153.823125 225.008056,153.589876 L225,153.5 L225,150.5 C225,150.223858 225.223858,150 225.5,150 Z M225.5,144 C225.74546,144 225.949608,144.176875 225.991944,144.410124 L226,144.5 L226,147.5 C226,147.776142 225.776142,148 225.5,148 C225.25454,148 225.050392,147.823125 225.008056,147.589876 L225,147.5 L225,144.5 C225,144.223858 225.223858,144 225.5,144 Z M225.5,138 C225.74546,138 225.949608,138.176875 225.991944,138.410124 L226,138.5 L226,141.5 C226,141.776142 225.776142,142 225.5,142 C225.25454,142 225.050392,141.823125 225.008056,141.589876 L225,141.5 L225,138.5 C225,138.223858 225.223858,138 225.5,138 Z M225.5,132 C225.74546,132 225.949608,132.176875 225.991944,132.410124 L226,132.5 L226,135.5 C226,135.776142 225.776142,136 225.5,136 C225.25454,136 225.050392,135.823125 225.008056,135.589876 L225,135.5 L225,132.5 C225,132.223858 225.223858,132 225.5,132 Z M225.5,126 C225.74546,126 225.949608,126.176875 225.991944,126.410124 L226,126.5 L226,129.5 C226,129.776142 225.776142,130 225.5,130 C225.25454,130 225.050392,129.823125 225.008056,129.589876 L225,129.5 L225,126.5 C225,126.223858 225.223858,126 225.5,126 Z M225.5,120 C225.74546,120 225.949608,120.176875 225.991944,120.410124 L226,120.5 L226,123.5 C226,123.776142 225.776142,124 225.5,124 C225.25454,124 225.050392,123.823125 225.008056,123.589876 L225,123.5 L225,120.5 C225,120.223858 225.223858,120 225.5,120 Z M225.5,114 C225.74546,114 225.949608,114.176875 225.991944,114.410124 L226,114.5 L226,117.5 C226,117.776142 225.776142,118 225.5,118 C225.25454,118 225.050392,117.823125 225.008056,117.589876 L225,117.5 L225,114.5 C225,114.223858 225.223858,114 225.5,114 Z M225.5,108 C225.74546,108 225.949608,108.176875 225.991944,108.410124 L226,108.5 L226,111.5 C226,111.776142 225.776142,112 225.5,112 C225.25454,112 225.050392,111.823125 225.008056,111.589876 L225,111.5 L225,108.5 C225,108.223858 225.223858,108 225.5,108 Z M225.5,102 C225.74546,102 225.949608,102.176875 225.991944,102.410124 L226,102.5 L226,105.5 C226,105.776142 225.776142,106 225.5,106 C225.25454,106 225.050392,105.823125 225.008056,105.589876 L225,105.5 L225,102.5 C225,102.223858 225.223858,102 225.5,102 Z M225.5,96 C225.74546,96 225.949608,96.1768752 225.991944,96.4101244 L226,96.5 L226,99.5 C226,99.7761424 225.776142,100 225.5,100 C225.25454,100 225.050392,99.8231248 225.008056,99.5898756 L225,99.5 L225,96.5 C225,96.2238576 225.223858,96 225.5,96 Z M225.5,90 C225.74546,90 225.949608,90.1768752 225.991944,90.4101244 L226,90.5 L226,93.5 C226,93.7761424 225.776142,94 225.5,94 C225.25454,94 225.050392,93.8231248 225.008056,93.5898756 L225,93.5 L225,90.5 C225,90.2238576 225.223858,90 225.5,90 Z M225.5,84 C225.74546,84 225.949608,84.1768752 225.991944,84.4101244 L226,84.5 L226,87.5 C226,87.7761424 225.776142,88 225.5,88 C225.25454,88 225.050392,87.8231248 225.008056,87.5898756 L225,87.5 L225,84.5 C225,84.2238576 225.223858,84 225.5,84 Z M225.5,78 C225.74546,78 225.949608,78.1768752 225.991944,78.4101244 L226,78.5 L226,81.5 C226,81.7761424 225.776142,82 225.5,82 C225.25454,82 225.050392,81.8231248 225.008056,81.5898756 L225,81.5 L225,78.5 C225,78.2238576 225.223858,78 225.5,78 Z M225.5,72 C225.74546,72 225.949608,72.1768752 225.991944,72.4101244 L226,72.5 L226,75.5 C226,75.7761424 225.776142,76 225.5,76 C225.25454,76 225.050392,75.8231248 225.008056,75.5898756 L225,75.5 L225,72.5 C225,72.2238576 225.223858,72 225.5,72 Z M225.5,66 C225.74546,66 225.949608,66.1768752 225.991944,66.4101244 L226,66.5 L226,69.5 C226,69.7761424 225.776142,70 225.5,70 C225.25454,70 225.050392,69.8231248 225.008056,69.5898756 L225,69.5 L225,66.5 C225,66.2238576 225.223858,66 225.5,66 Z M225.5,60 C225.74546,60 225.949608,60.1768752 225.991944,60.4101244 L226,60.5 L226,63.5 C226,63.7761424 225.776142,64 225.5,64 C225.25454,64 225.050392,63.8231248 225.008056,63.5898756 L225,63.5 L225,60.5 C225,60.2238576 225.223858,60 225.5,60 Z M225.5,46 C227.985281,46 230,48.0147186 230,50.5 C230,52.8160341 228.250342,54.7234136 226.000707,54.9724574 L226,57.5 C226,57.7761424 225.776142,58 225.5,58 C225.25454,58 225.050392,57.8231248 225.008056,57.5898756 L225,57.5 L225.000297,54.9725684 C222.750179,54.7239814 221,52.8163788 221,50.5 C221,48.0147186 223.014719,46 225.5,46 Z M225.5,47 C223.567003,47 222,48.5670034 222,50.5 C222,52.4329966 223.567003,54 225.5,54 C227.432997,54 229,52.4329966 229,50.5 C229,48.5670034 227.432997,47 225.5,47 Z" fill="#979797" fill-rule="nonzero"></path>
            </g>
        </g>
    </g>
</svg>